<?xml version="1.0" encoding="utf-8"?>
<!-- Generator: Adobe Illustrator 21.1.0, SVG Export Plug-In . SVG Version: 6.00 Build 0)  -->
<svg version="1.1" id="Layer_1" xmlns="http://www.w3.org/2000/svg" xmlns:xlink="http://www.w3.org/1999/xlink" x="0px" y="0px"
	 viewBox="0 0 513.2 69.4" style="enable-background:new 0 0 513.2 69.4;" xml:space="preserve">
<style type="text/css">
	.st0{fill:#239742;}
	.st1{fill:#2B2980;}
	.st2{fill:#424242;}
</style>
<title>Genomind Logo</title>
<path class="st0" d="M211.7,54.3c-7.9-13.4-3.4-30.6,10-38.5c12.3-7.2,28-4.1,36.6,7.2C252,5,232.2-4.5,214.1,1.8
	c-14,4.9-23.3,18.1-23.2,32.9c0,1.5,0.1,3,0.3,4.6C195.1,47.4,202.8,53,211.7,54.3z"/>
<path class="st1" d="M239.3,14.5c8.1,13.3,3.8,30.5-9.4,38.6c-11.8,7.2-27.1,4.7-36-5.8c7,17.8,27.1,26.7,44.9,19.7
	c13.3-5.2,22-18,22.1-32.3c0-0.1,0-0.3,0-0.4C258.3,24,249.8,16.2,239.3,14.5z"/>
<path class="st2" d="M108.5,51.2l-33,0c-1,0-1.8-0.8-1.8-1.8l0-10.7c0-1,0.8-1.8,1.8-1.8l0,0l22.1,0c1,0,1.8-0.8,1.8-1.8l0-4.9
	l-23.9,0c-1,0-1.8-0.8-1.8-1.8c0,0,0,0,0,0l0-8.7c0-1,0.8-1.8,1.8-1.8c0,0,0,0,0,0l31.6,0c1,0,1.8-0.8,1.8-1.8v0l0-4.9L68,11
	c-1,0-1.8,0.8-1.8,1.8l-0.1,43.2c0,1,0.8,1.8,1.8,1.8l42.3,0.1l0-4.9C110.3,52,109.5,51.2,108.5,51.2z"/>
<path class="st2" d="M165.6,13l0,32c0,0.6,0,1.2-0.1,1.8c-0.4-0.4-0.9-0.9-1.2-1.4l-28.6-32.9c-0.8-0.8-1.9-1.3-3-1.4l-5.7,0
	l-0.1,46.8l5.7,0c1,0,1.8-0.8,1.8-1.8l0-32c0-0.6,0-1.2,0.1-1.8c0.4,0.4,0.9,0.9,1.2,1.4l28.6,32.9c0.8,0.8,1.9,1.3,3,1.4l5.7,0
	l0.1-46.8l-5.7,0C166.5,11.2,165.7,12,165.6,13z"/>
<path class="st2" d="M416.6,13.3l0,32c0,0.6,0,1.2-0.1,1.8c-0.4-0.4-0.9-0.9-1.3-1.4l-28.6-32.9c-0.8-0.8-1.9-1.3-3-1.4l-5.7,0
	l-0.1,46.8l5.7,0c1,0,1.8-0.8,1.8-1.8c0,0,0,0,0,0l0-32c0-0.6,0-1.2,0.1-1.8c0,0,0.6,0.6,1.2,1.4L415.3,57c0.8,0.8,1.9,1.3,3,1.4
	l5.7,0l0.1-46.8l-5.7,0C417.4,11.5,416.6,12.3,416.6,13.3z"/>
<path class="st2" d="M321.5,12.9l-16,26c-0.2,0.5-0.8,0.8-1.3,0.6c-0.3-0.1-0.5-0.3-0.6-0.6l-16-26c-0.6-0.9-1.6-1.5-2.7-1.5l-5.7,0
	l-0.1,46.8l5.7,0c1,0,1.8-0.8,1.8-1.8l0-29.2c0-0.6,0-1.2,0.1-1.8c0.4,0.5,0.7,1,1,1.5l15.8,25.8c0.2,0.5,0.7,0.8,1.3,0.6
	c0.3-0.1,0.5-0.3,0.6-0.6L321.4,27c0.3-0.5,0.6-1,1-1.5c0.1,0.6,0.1,1.2,0.1,1.8l0,29.2c0,1,0.8,1.8,1.8,1.8l5.7,0l0.1-46.8l-5.7,0
	C323.2,11.4,322.2,12,321.5,12.9z"/>
<path class="st2" d="M356.3,11.4l-3.9,0c-1,0-1.8,0.8-1.8,1.8l-0.1,43.2c0,1,0.8,1.8,1.8,1.8l3.9,0c1,0,1.8-0.8,1.8-1.8l0.1-43.2
	C358,12.2,357.2,11.4,356.3,11.4z"/>
<path class="st2" d="M50.1,32.4l-22.2,0l0,4.9c0,1,0.8,1.8,1.8,1.8l12.9,0c1,0,1.8,0.8,1.8,1.8l0,3.4c0,4-6.5,7.7-15.5,7.7
	c-0.7,0-1.4,0-2-0.1l-0.6,0c-11.6-1-18.6-8.8-18.6-17.3c0-9.8,8-17.9,21.9-17.9c5.4-0.1,10.7,1.8,14.8,5.3c0.7,0.7,1.9,0.7,2.6,0
	l3.9-3.6c-5.9-5.6-13.9-8.7-22-8.5C12,9.9,0,20.9,0,34.3c0,14.4,12,22.8,24.5,24.3l0.2,0c0.5,0,1,0.1,1.5,0.1l0.5,0l1.5,0l0.2,0
	c13.1,0,23.4-5.6,23.4-14l0-10.5C51.9,33.2,51.1,32.4,50.1,32.4C50.1,32.4,50.1,32.4,50.1,32.4z"/>
<path class="st2" d="M468,11.6l-22.2,0c-1,0-1.8,0.8-1.8,1.8l-0.1,43.2c0,1,0.8,1.8,1.8,1.8c0,0,0,0,0,0l22.2,0
	c14.8,0,25.5-10.4,25.6-23.4l0-0.3C493.6,24.2,486.3,11.6,468,11.6z M486,35c-0.1,7-5.4,16.7-18.1,16.7l-14.7,0
	c-1,0-1.8-0.8-1.8-1.8c0,0,0,0,0,0l0-29.7c0-1,0.8-1.8,1.8-1.8l14.7,0c10.5,0,18.1,6.5,18.1,16.5L486,35L486,35z"/>
<path class="st2" d="M507.5,19L507.5,19c0.8-0.2,1.4-0.9,1.5-1.8c0-0.6-0.2-1.2-0.7-1.6c-0.8-0.4-1.6-0.6-2.5-0.5
	c-0.9,0-1.8,0.1-2.8,0.2v7.2h1.7v-2.8h0.8c0.7-0.1,1.4,0.3,1.5,1c0,0,0,0.1,0,0.1c0.1,0.6,0.3,1.2,0.6,1.8h1.8
	c-0.3-0.6-0.4-1.2-0.5-1.9C508.8,19.9,508.2,19.3,507.5,19z M505.5,18.5h-0.8v-2.1c0.3-0.1,0.6-0.1,0.9-0.1c1,0,1.5,0.4,1.5,1.1
	S506.5,18.5,505.5,18.5L505.5,18.5z"/>
<path class="st2" d="M505.9,11.6c-4,0.1-7.2,3.4-7.1,7.4c0.1,4,3.4,7.2,7.4,7.1c4-0.1,7.1-3.3,7.1-7.3
	C513.2,14.7,509.9,11.5,505.9,11.6C505.9,11.6,505.9,11.6,505.9,11.6z M505.9,24.5c-3.2,0-5.7-2.6-5.7-5.7c0-3.2,2.6-5.7,5.7-5.7
	c3.1,0,5.5,2.5,5.5,5.6c0,0.1,0,0.1,0,0.2c0.1,3-2.3,5.6-5.3,5.7C506,24.5,505.9,24.5,505.9,24.5L505.9,24.5z"/>
</svg>
