<?xml version="1.0" encoding="UTF-8"?>
<svg width="200px" height="112px" viewBox="0 0 200 112" version="1.1" xmlns="http://www.w3.org/2000/svg" xmlns:xlink="http://www.w3.org/1999/xlink">
    <!-- Generator: Sketch 51.3 (57544) - http://www.bohemiancoding.com/sketch -->
    <title>logo/knockout</title>
    <desc>Created with Sketch.</desc>
    <defs>
        <polygon id="path-1" points="0 111.555556 199.613747 111.555556 199.613747 0.151555556 0 0.151555556"></polygon>
    </defs>
    <g id="Symbols" stroke="none" stroke-width="1" fill="none" fill-rule="evenodd">
        <g id="global/mobile/nav" transform="translate(-30.000000, -24.000000)">
            <g id="logo/knockout" transform="translate(30.000000, 24.000000)">
                <g id="Group-46">
                    <polygon id="Fill-1" fill="#8CC63F" points="183.770377 67.1381333 166.86439 67.1381333 166.86439 84.0816889"></polygon>
                    <polygon id="Fill-2" fill="#CADB30" points="183.770377 35.3816 183.770377 19.5029333 167.926918 19.5029333"></polygon>
                    <polygon id="Fill-3" fill="#8CC63F" points="183.770421 19.5032444 183.770421 35.3814667 199.613437 19.5032444"></polygon>
                    <polygon id="Fill-4" fill="#7EB339" points="152.083858 35.3816 152.083858 67.1380444 183.770333 67.1380444"></polygon>
                    <polygon id="Fill-5" fill="#8CC63F" points="183.770421 67.1380444 199.613437 67.1380444 199.613437 51.2602667"></polygon>
                    <polygon id="Fill-6" fill="#CADB30" points="136.24102 51.2600889 136.24102 67.1383111 152.084035 67.1383111"></polygon>
                    <polygon id="Fill-7" fill="#8CC63F" points="183.770377 67.1381333 183.770377 35.3816889 152.083902 35.3816889"></polygon>
                    <polygon id="Fill-8" fill="#CADB30" points="183.770421 35.3816444 183.770421 51.2598667 183.770421 67.1380889 199.613437 51.2598667 199.613437 35.3816444 199.604124 35.3816444 199.604124 19.5127556"></polygon>
                    <polygon id="Fill-9" fill="#8CC63F" points="136.250554 19.5126667 136.250554 35.3815556 136.241242 35.3815556 136.241242 51.2602222 152.083814 67.138 152.083814 51.2602222 152.083814 35.3815556"></polygon>
                    <polygon id="Fill-10" fill="#7EB339" points="167.927095 19.5031556 152.08408 19.5031556 136.250377 19.5031556 152.08408 35.3716 152.08408 35.3818222 167.927095 35.3818222 183.770554 35.3818222"></polygon>
                    <polygon id="Fill-11" fill="#729925" points="136.240798 34.4955556 147.105543 34.4955556 147.105543 19.5031111 136.240798 19.5031111"></polygon>
                    <polygon id="Fill-12" fill="#FFFFFF" points="6.70669623 38.0252444 4.66855876 44.8514667 2.64416851 38.0252444 -0.000177383592 38.0252444 3.46456763 48.2074667 5.83840355 48.2074667 9.28851441 38.0252444"></polygon>
                    <g id="Group-45" transform="translate(0.000000, 0.292889)">
                        <path d="M13.6997339,44.1794222 C13.6997339,42.6740889 13.3897561,42.1700889 12.5338803,42.1700889 C11.6771175,42.1700889 11.3671397,42.6740889 11.3671397,44.1794222 C11.3671397,45.6860889 11.6771175,46.1887556 12.5338803,46.1887556 C13.3897561,46.1887556 13.6997339,45.6860889 13.6997339,44.1794222 M9.05006652,44.1794222 C9.05006652,41.4825333 10.1077162,40.2887556 12.5338803,40.2887556 C14.9596009,40.2887556 16.0172506,41.4825333 16.0172506,44.1794222 C16.0172506,46.8763111 14.9596009,48.0705333 12.5338803,48.0705333 C10.1077162,48.0705333 9.05006652,46.8763111 9.05006652,44.1794222" id="Fill-13" fill="#FFFFFF"></path>
                        <mask id="mask-2" fill="white">
                            <use xlink:href="#path-1"></use>
                        </mask>
                        <g id="Clip-16"></g>
                        <path d="M17.3543237,47.9146667 L19.6474501,47.9146667 L19.6474501,40.4444444 L17.3543237,40.4444444 L17.3543237,47.9146667 Z M17.3543237,39.4777778 L19.6474501,39.4777778 L19.6474501,37.7417778 L17.3543237,37.7417778 L17.3543237,39.4777778 Z" id="Fill-15" fill="#FFFFFF" mask="url(#mask-2)"></path>
                        <path d="M20.9702439,44.1946222 C20.9702439,41.5515111 22.1134812,40.2888444 24.5383149,40.2888444 C25.4580488,40.2888444 26.2252328,40.5075111 26.547184,40.6670667 L26.6638137,42.5581778 C26.282439,42.3839556 25.5334368,42.1599556 24.8518404,42.1599556 C23.7640355,42.1599556 23.2873171,42.7244 23.2873171,44.1946222 C23.2873171,45.6244 23.7737916,46.1781778 24.8833259,46.1781778 C25.6314412,46.1781778 26.4518404,45.9377333 26.8615965,45.7488444 L26.5307761,47.6919556 C26.2141463,47.8524 25.4478492,48.0706222 24.5290022,48.0706222 C22.1134812,48.0706222 20.9702439,46.8181778 20.9702439,44.1946222" id="Fill-17" fill="#FFFFFF" mask="url(#mask-2)"></path>
                        <path d="M32.5311308,43.4237778 C32.4779157,42.3953333 32.0091796,41.9757778 31.2561863,41.9757778 C30.4850111,41.9757778 30.0189357,42.4713333 29.9466519,43.4237778 L32.5311308,43.4237778 Z M27.7045233,44.2051111 C27.7045233,41.6477778 28.902306,40.2895556 31.2060754,40.2895556 C33.3524169,40.2895556 34.5790244,41.426 34.5790244,44.1428889 L34.5790244,44.8126667 L29.9519734,44.8126667 C30.021153,45.7553333 30.5568514,46.2246667 31.8468736,46.2246667 C32.7475388,46.2246667 33.7595122,46.0068889 34.2486475,45.8322222 L33.9266962,47.7353333 C33.4606208,47.8806667 32.5284701,48.0704444 31.6397783,48.0704444 C28.8601774,48.0704444 27.7045233,46.7388889 27.7045233,44.2051111 Z" id="Fill-18" fill="#FFFFFF" mask="url(#mask-2)"></path>
                        <path d="M35.8488692,47.6525333 L35.5278049,45.7383111 C36.0519734,45.9725333 37.1881153,46.2792 38.3349002,46.2792 C39.2164967,46.2792 39.5122838,46.0454222 39.5122838,45.7196444 C39.5122838,45.4000889 39.3872284,45.2552 38.7544124,45.1356444 L37.6142794,44.9080889 C36.1428825,44.6116444 35.585898,43.9374222 35.585898,42.6338667 C35.585898,41.1623111 36.5934368,40.2992 38.7725942,40.2992 C39.8173836,40.2992 40.7739246,40.5143111 41.2111752,40.6707556 L41.3229268,42.5085333 C40.9136142,42.3236444 39.9934368,42.0743111 38.9557428,42.0743111 C38.0710421,42.0743111 37.780133,42.2649778 37.780133,42.5760889 C37.780133,42.8832 37.9286918,43.0263111 38.5721508,43.1520889 L39.6692683,43.3645333 C41.1388914,43.6596444 41.71051,44.3258667 41.71051,45.6867556 C41.71051,47.2107556 40.7433259,48.0600889 38.3987583,48.0600889 C37.3615078,48.0600889 36.3340133,47.8316444 35.8488692,47.6525333" id="Fill-19" fill="#FFFFFF" mask="url(#mask-2)"></path>
                        <path d="M50.3312195,44.1794222 C50.3312195,42.6740889 50.0207982,42.1700889 49.1649224,42.1700889 C48.3086031,42.1700889 47.9981818,42.6740889 47.9981818,44.1794222 C47.9981818,45.6860889 48.3086031,46.1887556 49.1649224,46.1887556 C50.0207982,46.1887556 50.3312195,45.6860889 50.3312195,44.1794222 M45.6815521,44.1794222 C45.6815521,41.4825333 46.7387583,40.2887556 49.1649224,40.2887556 C51.590643,40.2887556 52.6487361,41.4825333 52.6487361,44.1794222 C52.6487361,46.8763111 51.590643,48.0705333 49.1649224,48.0705333 C46.7387583,48.0705333 45.6815521,46.8763111 45.6815521,44.1794222" id="Fill-20" fill="#FFFFFF" mask="url(#mask-2)"></path>
                        <path d="M54.488204,42.1676889 L53.3525055,42.1676889 L53.3525055,40.4445778 L54.488204,40.4445778 L54.488204,40.4068 C54.493082,38.4041333 55.5893126,37.5041333 57.3502882,37.5041333 C57.963592,37.5041333 58.5826608,37.6210222 58.8793348,37.7041333 L58.9910865,39.4139111 C58.7729047,39.3356889 58.293082,39.2241333 57.7862084,39.2241333 C57.1281153,39.2241333 56.7866519,39.5592444 56.7813304,40.4054667 L56.7813304,40.4445778 L58.7196896,40.4445778 L58.7196896,42.1676889 L56.7813304,42.1676889 L56.7813304,47.9148 L54.488204,47.9148 L54.488204,42.1676889 Z" id="Fill-21" fill="#FFFFFF" mask="url(#mask-2)"></path>
                        <polygon id="Fill-22" fill="#FFFFFF" mask="url(#mask-2)" points="20.8065632 60.7922667 14.300133 60.7922667 14.300133 79.9078222 6.9502439 79.9078222 6.9502439 60.7922667 0.443370288 60.7922667 0.443370288 54.4384889 20.8065632 54.4384889"></polygon>
                        <path d="M30.8681596,70.5040889 C30.8681596,67.0725333 30.2898891,66.0729778 28.6065188,66.0729778 C26.9227051,66.0729778 26.3444346,67.0725333 26.3444346,70.5040889 C26.3444346,73.9352 26.9227051,74.9347556 28.6065188,74.9347556 C30.2898891,74.9347556 30.8681596,73.9352 30.8681596,70.5040889 M19.4353437,70.5040889 C19.4353437,63.7085333 22.2171619,60.6858667 28.6065188,60.6858667 C34.9958758,60.6858667 37.7772506,63.7085333 37.7772506,70.5040889 C37.7772506,77.2996444 34.9958758,80.3223111 28.6065188,80.3223111 C22.2171619,80.3223111 19.4353437,77.2996444 19.4353437,70.5040889" id="Fill-23" fill="#FFFFFF" mask="url(#mask-2)"></path>
                        <path d="M51.3071397,70.5040889 C51.3071397,67.0725333 50.7177827,66.0729778 49.0344124,66.0729778 C47.3501552,66.0729778 46.7607982,67.0725333 46.7607982,70.5040889 C46.7607982,73.9352 47.3501552,74.9347556 49.0344124,74.9347556 C50.7177827,74.9347556 51.3071397,73.9352 51.3071397,70.5040889 Z M58.1687805,54.0254222 L58.1687805,79.9076444 L52.022439,79.9076444 L51.3071397,78.0298667 C50.5674501,79.1236444 49.0228825,80.3223111 46.4233259,80.3223111 C41.9550333,80.3223111 39.8525942,77.3325333 39.8525942,70.5040889 C39.8525942,63.6756444 41.9550333,60.6858667 46.4233259,60.6858667 C49.0228825,60.6858667 50.5674501,61.8840889 51.3071397,62.9778667 L51.3071397,55.0045333 L58.1687805,54.0254222 Z" id="Fill-24" fill="#FFFFFF" mask="url(#mask-2)"></path>
                        <path d="M68.9961419,75.5874222 C70.5988027,75.5874222 71.4338359,75.0136444 71.4338359,73.2785333 L71.4338359,72.0185333 L68.9961419,72.0185333 C67.6608869,72.0185333 67.0129933,72.6176444 67.0129933,73.8096444 C67.0129933,75.0385333 67.7114412,75.5874222 68.9956984,75.5874222 L68.9961419,75.5874222 Z M66.5744124,80.3229778 C62.7211973,80.3229778 60.7296231,78.0527556 60.7296231,74.3247556 C60.7296231,70.6389778 63.0418182,68.4749778 67.5322838,68.4749778 L71.4333925,68.4749778 L71.4333925,68.1447556 C71.4333925,66.5776444 70.5509091,65.9820889 68.0347228,65.9820889 C65.8427051,65.9820889 63.4635477,66.4572 62.2821729,66.8349778 L63.2094457,61.4140889 C64.3345011,61.1336444 66.7921508,60.7705333 69.422306,60.7705333 C75.5243016,60.7705333 78.1185366,63.4803111 78.1185366,68.1954222 L78.1185366,79.9078667 L72.1593348,79.9078667 L71.4333925,78.0296444 C70.8608869,79.1914222 69.2498004,80.3220889 66.5744124,80.3220889 L66.5744124,80.3229778 Z" id="Fill-25" fill="#FFFFFF" mask="url(#mask-2)"></path>
                        <path d="M85.0745455,87.1837778 C83.3933925,87.1837778 82.1539246,86.8206667 81.7042572,86.5402222 L80.7268736,81.1748889 C81.2745455,81.3935556 82.3299778,81.6846667 83.2851885,81.6846667 C84.3885144,81.6846667 85.3352993,81.3517778 85.879867,80.2655556 L86.0643459,79.7957778 L79.0998226,61.1002222 L86.3490466,61.1002222 L89.4319734,72.0704444 L91.8443902,61.1002222 L98.9122395,61.1002222 L92.2687805,81.2006667 C90.8084701,85.6255556 88.3565854,87.1846667 85.0749889,87.1846667 L85.0745455,87.1837778 Z" id="Fill-26" fill="#FFFFFF" mask="url(#mask-2)"></path>
                        <polygon id="Fill-27" fill="#FFFFFF" mask="url(#mask-2)" points="101.640399 52.9832444 108.828426 52.9832444 104.217783 64.3859111 100.746386 64.3859111"></polygon>
                        <path d="M109.500931,79.2141333 L108.624213,73.8456889 C110.009135,74.4661333 113.037073,75.3092444 116.153259,75.3092444 C117.714235,75.3092444 118.256142,74.8976889 118.256142,74.2821333 C118.256142,73.6914667 117.993614,73.4061333 116.669889,73.1679111 L113.904922,72.6114667 C110.174102,71.8581333 108.770111,70.1208 108.770111,66.6999111 C108.770111,62.9083556 111.339069,60.7368 116.901375,60.7368 C119.724878,60.7368 122.291175,61.3345778 123.458803,61.7888 L123.762572,66.8572444 C122.590067,66.3310222 120.029091,65.6332444 117.309357,65.6332444 C115.801153,65.6332444 115.284523,65.9750222 115.284523,66.5545778 C115.284523,67.1483556 115.594501,67.4341333 116.96878,67.6963556 L119.663681,68.2172444 C123.276984,68.9305778 124.757251,70.6972444 124.757251,74.2230222 C124.757251,78.1363556 122.350155,80.2710222 116.114235,80.2710222 C113.433082,80.2710222 110.763459,79.6754667 109.500931,79.2141333" id="Fill-28" fill="#FFFFFF" mask="url(#mask-2)"></path>
                        <path d="M23.7654545,110.231511 L22.8244346,103.914622 C24.8514856,104.580844 28.7951663,105.501733 32.1486031,105.501733 C34.5925055,105.501733 35.4075831,104.717733 35.4075831,103.471956 C35.4075831,102.406622 34.7818625,101.871067 32.8497118,101.418622 L29.1384035,100.541733 C24.7681153,99.5319556 22.841286,97.2981778 22.841286,92.8848444 C22.841286,87.8630667 25.9827494,84.8941778 32.8359645,84.8941778 C36.5805322,84.8941778 39.8031486,85.5990667 41.1969401,86.1230667 L41.5406208,92.3466222 C39.8927273,91.7257333 36.56102,90.8972889 33.4860754,90.8972889 C31.1237694,90.8972889 30.4284257,91.6332889 30.4284257,92.7395111 C30.4284257,93.9177333 31.1073614,94.4381778 33.0647894,94.8915111 L36.6811973,95.7306222 C40.9592461,96.7021778 42.9814191,98.8061778 42.9814191,103.337733 C42.9814191,108.537289 39.8421729,111.555511 32.6541463,111.555511 C29.0213304,111.555511 25.441286,110.802622 23.7654545,110.231511" id="Fill-29" fill="#FFFFFF" mask="url(#mask-2)"></path>
                        <path d="M59.052949,105.280978 L58.111929,110.594756 C57.4023947,110.922311 55.793969,111.347644 53.9367627,111.347644 C49.4325499,111.347644 46.6764523,108.944089 46.6764523,103.393422 L46.6764523,96.9680889 L43.8977384,96.9680889 L43.8977384,92.1512 L46.6764523,92.1512 L46.6764523,88.2614222 L53.5376497,86.9289778 L53.5376497,92.1512 L58.5642572,92.1512 L58.5642572,96.9680889 L53.5376497,96.9680889 L53.5376497,103.142311 C53.5376497,105.201422 54.4564967,105.848089 56.1429712,105.848089 C57.274235,105.848089 58.463592,105.509422 59.052949,105.280978" id="Fill-30" fill="#FFFFFF" mask="url(#mask-2)"></path>
                        <path d="M66.7494013,111.373422 C62.90949,111.373422 61.0079379,108.808978 61.0079379,105.235644 L61.0079379,92.1512 L67.8686918,92.1512 L67.8686918,103.450311 C67.8686918,105.104533 68.374235,105.988978 69.8740133,105.988978 C71.3901996,105.988978 71.9573836,105.104533 71.9573836,103.450311 L71.9573836,92.1512 L78.8181375,92.1512 L78.8181375,110.958756 L72.6828825,110.958756 L71.9573836,109.0472 C70.6780044,110.477867 69.1143681,111.373422 66.7494013,111.373422 Z" id="Fill-31" fill="#FFFFFF" mask="url(#mask-2)"></path>
                        <path d="M93.1024834,101.555289 C93.1024834,98.1237333 92.5131264,97.1246222 90.8297561,97.1246222 C89.1454989,97.1246222 88.5561419,98.1237333 88.5561419,101.555289 C88.5561419,104.9864 89.1454989,105.985956 90.8297561,105.985956 C92.5131264,105.985956 93.1024834,104.9864 93.1024834,101.555289 Z M99.9641242,85.0766222 L99.9641242,110.958844 L93.8173392,110.958844 L93.1024834,109.081511 C92.3627938,110.175289 90.8182262,111.373511 88.2186696,111.373511 C83.7503769,111.373511 81.6479379,108.383733 81.6479379,101.555289 C81.6479379,94.7268444 83.7503769,91.7370667 88.2186696,91.7370667 C90.8182262,91.7370667 92.3627938,92.9352889 93.1024834,94.0290667 L93.1024834,86.0561778 L99.9641242,85.0766222 Z" id="Fill-32" fill="#FFFFFF" mask="url(#mask-2)"></path>
                        <path d="M114.701641,99.4537333 C114.581463,97.2759556 113.643104,96.3772889 112.082129,96.3772889 C110.498537,96.3772889 109.507406,97.4439556 109.325588,99.4537333 L114.701641,99.4537333 Z M112.880798,111.373289 C105.804523,111.373289 102.715831,108.129733 102.715831,101.681733 C102.715831,95.1852889 105.834678,91.7372889 111.869268,91.7372889 C117.373038,91.7372889 120.565499,94.6528444 120.565499,101.339956 L120.565499,103.262178 L109.350421,103.262178 C109.585011,105.260844 110.88878,106.162622 113.792993,106.162622 C116.083016,106.162622 118.63867,105.615956 119.886563,105.179956 L118.97082,110.5364 C117.730909,110.900844 115.251086,111.373289 112.880355,111.373289 L112.880798,111.373289 Z" id="Fill-33" fill="#FFFFFF" mask="url(#mask-2)"></path>
                        <path d="M123.291042,92.1512 L129.426297,92.1512 L130.152239,94.0632 C131.431175,92.6325333 132.995255,91.7369778 135.360222,91.7369778 C139.200133,91.7369778 141.102129,94.3000889 141.102129,97.8747556 L141.102129,110.958756 L134.240488,110.958756 L134.240488,99.6605333 C134.240488,98.0058667 133.735388,97.1218667 132.23561,97.1218667 C130.71898,97.1218667 130.152239,98.0058667 130.152239,99.6605333 L130.152239,110.958756 L123.291042,110.958756 L123.291042,92.1512 Z" id="Fill-34" fill="#FFFFFF" mask="url(#mask-2)"></path>
                        <path d="M158.198315,105.280978 L157.257295,110.594756 C156.547761,110.922311 154.939335,111.347644 153.082572,111.347644 C148.578359,111.347644 145.821818,108.944089 145.821818,103.393422 L145.821818,96.9680889 L143.043104,96.9680889 L143.043104,92.1512 L145.821818,92.1512 L145.821818,88.2614222 L152.683016,86.9289778 L152.683016,92.1512 L157.709623,92.1512 L157.709623,96.9680889 L152.683016,96.9680889 L152.683016,103.142311 C152.683016,105.201422 153.602306,105.848089 155.288337,105.848089 C156.419601,105.848089 157.609401,105.509422 158.198315,105.280978" id="Fill-35" fill="#FFFFFF" mask="url(#mask-2)"></path>
                        <path d="M160.409978,110.265378 L159.532816,104.896933 C160.918182,105.517822 163.945676,106.360489 167.061863,106.360489 C168.623282,106.360489 169.164745,105.948933 169.164745,105.333822 C169.164745,104.743156 168.902217,104.457378 167.578492,104.219156 L164.813969,103.662711 C161.083149,102.909378 159.678714,101.172044 159.678714,97.7511556 C159.678714,93.9596 162.247672,91.7880444 167.809978,91.7880444 C170.633925,91.7880444 173.199778,92.3862667 174.367406,92.8400444 L174.671619,97.9084889 C173.49867,97.3822667 170.937694,96.6844889 168.21796,96.6844889 C166.709756,96.6844889 166.193126,97.0267111 166.193126,97.6062667 C166.193126,98.1996 166.503104,98.4853778 167.877384,98.7476 L170.57184,99.2689333 C174.185588,99.9818222 175.665854,101.748933 175.665854,105.274711 C175.665854,109.1876 173.258758,111.322711 167.022838,111.322711 C164.341685,111.322711 161.672062,110.727156 160.409978,110.265378" id="Fill-36" fill="#FFFFFF" mask="url(#mask-2)"></path>
                        <polygon id="Fill-37" fill="#00E0D8" mask="url(#mask-2)" points="116.986475 31.3070222 128.044124 31.3070222 128.044124 42.3888"></polygon>
                        <polygon id="Fill-38" fill="#00A49E" mask="url(#mask-2)" points="112.699557 10.5366222 112.699557 31.3068444 133.423282 31.3068444"></polygon>
                        <polygon id="Fill-39" fill="#00E0D8" mask="url(#mask-2)" points="102.337162 20.9216 102.337162 31.3069333 112.699468 31.3069333"></polygon>
                        <polygon id="Fill-40" fill="#00C4BD" mask="url(#mask-2)" points="143.772905 0.164222222 143.779557 0.158 133.417251 0.158 123.054945 0.158 133.417251 10.5433333 133.423459 10.5366667 143.772905 10.5366667"></polygon>
                        <polygon id="Fill-41" fill="#00C4BD" mask="url(#mask-2)" points="133.423503 10.5366222 112.699778 10.5366222 133.423503 31.3068444 143.785366 31.3068444 143.785366 20.9215111"></polygon>
                        <polygon id="Fill-42" fill="#00C4BD" mask="url(#mask-2)" points="102.343681 0.157733333 102.343681 10.5368444 102.337029 10.5368444 102.337029 20.9217333 112.699778 31.3070667 112.699778 20.9217333 112.699778 10.5368444"></polygon>
                        <polygon id="Fill-43" fill="#00A49E" mask="url(#mask-2)" points="133.423503 10.5366222 123.061641 0.151733333 112.699778 0.151733333 102.343681 0.151733333 112.699778 10.5299556 112.699778 10.5366222 123.061641 10.5366222"></polygon>
                        <polygon id="Fill-44" fill="#00E0D8" mask="url(#mask-2)" points="143.772905 10.5366222 133.423459 10.5366222 143.772905 20.9090667"></polygon>
                    </g>
                </g>
            </g>
        </g>
    </g>
</svg>