<?xml version="1.0" encoding="utf-8"?>
<!-- Generator: Adobe Illustrator 21.1.0, SVG Export Plug-In . SVG Version: 6.00 Build 0)  -->
<svg version="1.1" xmlns="http://www.w3.org/2000/svg" xmlns:xlink="http://www.w3.org/1999/xlink" x="0px" y="0px"
	 viewBox="0 0 171.2 67" style="enable-background:new 0 0 171.2 67;" xml:space="preserve">
<style type="text/css">
	.st0{fill:#FFFFFF;}
</style>
<g id="Layer_2">
</g>
<g id="Layer_1">
	<title>Artboard 1</title>
	<g id="mask-4_1_">
		<path id="path-3_1_" class="st0" d="M84.5,15.4v13c-1.1-1.1-2.4-2-3.8-2.7c-1.4-0.6-2.9-0.9-4.4-0.9c-3.3,0-6.5,1.4-8.7,3.9
			c-2.4,2.7-3.7,6.3-3.6,10c-0.1,3.6,1.2,7.1,3.7,9.8c2.2,2.5,5.4,4,8.7,3.9c1.4,0,2.9-0.3,4.2-0.8c1.4-0.6,2.7-1.5,3.8-2.6v2.7h6.5
			V15.4H84.5z M72.7,44.2c-1.4-1.5-2.1-3.5-2-5.6c-0.1-2,0.6-4,2-5.5c1.3-1.4,3.1-2.2,5-2.2c1.9-0.1,3.8,0.7,5.2,2.1
			c1.4,1.5,2.1,3.5,2,5.5c0.1,2.1-0.6,4.1-2,5.7c-1.3,1.4-3.2,2.2-5.1,2.2C75.8,46.4,73.9,45.6,72.7,44.2z M36.5,28.8
			c-2.6,2.7-4,6.3-3.8,10c-0.2,7.3,5.6,13.4,12.9,13.6c0.3,0,0.6,0,0.9,0c2.4,0.1,4.7-0.4,6.8-1.4c2-1,3.7-2.5,4.9-4.3l-5.5-2.6
			c-1.7,1.7-3.9,2.6-6.3,2.6c-1.8,0.1-3.6-0.5-5-1.7c-1.4-1.1-2.3-2.7-2.5-4.4h21v-1.2c0-4.3-1.3-7.8-3.8-10.5
			c-2.6-2.7-6.3-4.1-10-4C42.5,24.7,39,26.2,36.5,28.8z M41.7,32c1.4-1,3.1-1.6,4.8-1.5c1.6,0,3.1,0.4,4.4,1.4
			c1.2,0.9,2.1,2.1,2.5,3.6H39.3C39.8,34,40.6,32.9,41.7,32z M24.7,25.9c-1.1,0.8-1.9,1.8-2.4,3v-3.3h-5.6v26.2h6.5V41.1v-1.3
			c0-3.7,0.3-6.1,1-7.4c0.4-1.1,1.4-1.8,2.5-1.9c0.7,0,1.3,0.2,1.9,0.6l2-5.7c-0.8-0.4-1.7-0.7-2.6-0.7
			C26.8,24.9,25.7,25.2,24.7,25.9L24.7,25.9z"/>
	</g>
	<polygon id="Fill-39_1_" class="st0" points="0,0 0,27.5 6.2,27.5 6.2,6.3 27.1,6.3 27.1,0 	"/>
	<path class="st0" d="M171.6,67.1H99.9V-1h71.7V67.1z M129.4,47.1c5.7,5.8,14.5,7.2,21.7,3.5l3.1,4h7.9l-6.1-8
		c3.1-3.4,4.7-7.8,4.6-12.4c0.1-5-1.8-9.8-5.4-13.3c-3.3-3.5-8-5.5-12.9-5.4c-3.2,0-6.4,0.9-9.2,2.5c-2.8,1.6-5.1,3.9-6.7,6.8
		c-1.6,2.8-2.5,6-2.4,9.3C124.1,38.9,125.9,43.6,129.4,47.1L129.4,47.1z M134.4,24.4c2.3-2.3,5.5-3.6,8.7-3.5c3.3,0,6.4,1.3,8.6,3.7
		c2.4,2.4,3.6,5.6,3.6,9c0,2.6-0.8,5.2-2.3,7.3l-3.3-4.3h-8.5l6.7,8.6c-1.5,0.7-3.1,1-4.8,1c-0.2,0-0.3,0-0.5,0
		c-6.8-0.2-12.1-5.9-11.8-12.6C130.8,30.2,132,26.9,134.4,24.4L134.4,24.4z M118.3,15.4h-6.7v37h6.7V15.4z"/>
</g>
</svg>
