<?xml version="1.0" encoding="utf-8"?>
<!-- Generator: Adobe Illustrator 21.1.0, SVG Export Plug-In . SVG Version: 6.00 Build 0)  -->
<svg version="1.1" id="Layer_1" xmlns="http://www.w3.org/2000/svg" xmlns:xlink="http://www.w3.org/1999/xlink" x="0px" y="0px"
	 viewBox="0 0 186 109.9" style="enable-background:new 0 0 186 109.9;" xml:space="preserve">
<style type="text/css">
	.st0{fill:#FFFFFF;}
</style>
<g id="logo-text">
	<path class="st0" d="M7.4,73.3l-1.3-5.4l-1.3,5.4H2.5L0,64.7h2.5l1.3,5.7l1.5-5.7H7l1.5,5.7l1.3-5.7h2.5l-2.5,8.6H7.4z"/>
	<path class="st0" d="M18.8,73.3L18.4,72H15l-0.4,1.2h-2.5l3.2-8.6h2.8l3.2,8.6h-2.5V73.3z M16.7,66.9l-1.1,3.2h2.2L16.7,66.9z"/>
	<path class="st0" d="M21.9,72.1l1.2-1.7c0.7,0.7,1.7,1.1,2.7,1.1c0.7,0,1.2-0.3,1.2-0.7c0-1.1-4.8-0.2-4.8-3.5
		c0-1.4,1.2-2.7,3.4-2.7c1.3,0,2.5,0.4,3.5,1.2l-1.2,1.7c-0.7-0.6-1.6-0.9-2.5-0.9c-0.6,0-0.9,0.2-0.9,0.6c0,1.1,4.8,0.3,4.8,3.4
		c0,1.7-1.3,2.9-3.6,2.9C24.3,73.5,23,73,21.9,72.1z"/>
	<path class="st0" d="M36.7,73.3v-3.4h-3.6v3.4h-2.2v-8.6h2.2v3.2h3.6v-3.2h2.2v8.6L36.7,73.3z"/>
	<path class="st0" d="M41.1,73.3v-8.6h2.2v8.6L41.1,73.3z"/>
	<path class="st0" d="M51.3,73.3l-3.6-5v5h-2.2v-8.6h2.3l3.5,4.7v-4.7h2.2v8.6L51.3,73.3z"/>
	<path class="st0" d="M55.2,69c0-2.4,1.9-4.4,4.3-4.4c0.1,0,0.2,0,0.3,0c1.5-0.1,3,0.7,3.7,2.1l-1.8,1c-0.4-0.7-1-1.1-1.8-1.1
		c-1.4,0-2.5,1.1-2.5,2.5s1.1,2.5,2.5,2.5c0.6,0,1.1-0.2,1.6-0.5v-0.7h-1.9v-1.9h4.1v3.4c-1,1.1-2.3,1.7-3.8,1.7
		C57.2,73.4,55.2,71.7,55.2,69z"/>
	<path class="st0" d="M67.3,73.3v-6.6h-2.4v-1.9h7v1.9h-2.4v6.6H67.3z"/>
	<path class="st0" d="M72.9,69c-0.1-2.5,1.9-4.7,4.4-4.8s4.7,1.9,4.8,4.4c0.1,2.5-1.9,4.7-4.4,4.8c-0.1,0-0.1,0-0.2,0
		c-2.4,0.1-4.5-1.7-4.6-4.1C72.9,69.2,72.9,69.1,72.9,69z M79.8,69c-0.1-1.3-1.2-2.2-2.5-2.1s-2.2,1.2-2.1,2.5
		c0.1,1.2,1.1,2.1,2.3,2.1c1.3,0,2.3-1.1,2.3-2.3C79.8,69.1,79.8,69.1,79.8,69z"/>
	<path class="st0" d="M89.6,73.3l-3.6-5v5h-2.2v-8.6h2.3l3.5,4.7v-4.7h2.2v8.6L89.6,73.3z"/>
	<path class="st0" d="M97.7,73.3v-8.6h3.6c2.7,0,4.6,1.6,4.6,4.3s-1.9,4.3-4.6,4.3H97.7z M103.7,69c0.1-1.2-0.8-2.2-2-2.3
		c-0.1,0-0.2,0-0.4,0h-1.4v4.7h1.4C102.6,71.4,103.7,70.3,103.7,69z"/>
	<path class="st0" d="M107.3,69c0-2.4,1.9-4.4,4.3-4.4c0.1,0,0.2,0,0.3,0c1.6-0.1,3.1,0.8,3.7,2.3l-1.9,0.9c-0.3-0.7-1-1.2-1.8-1.2
		c-1.4,0-2.5,1.1-2.5,2.5s1.1,2.5,2.5,2.5c0.8,0,1.5-0.5,1.8-1.2l1.9,0.9c-0.7,1.4-2.1,2.3-3.7,2.3C109.4,73.6,107.3,71.5,107.3,69z
		"/>
	<path class="st0" d="M1.3,92.8V78.6h9v1.1H2.5V85h7.6v1.1H2.5v5.6h7.8v1.1L1.3,92.8z"/>
	<path class="st0" d="M13.8,85.7c-0.2-3.9,2.8-7.1,6.7-7.3c0.2,0,0.3,0,0.5,0c2,0,4,0.9,5.2,2.5l-1,0.7c-1-1.3-2.5-2.1-4.2-2.1
		c-3.4,0.2-6,3.1-5.8,6.6c0.2,3.2,2.7,5.7,5.8,5.8c1.7,0,3.2-0.8,4.2-2.1l1,0.6C25,92,23,93,21,92.9C17,93.1,13.8,90.1,13.8,85.7z"
		/>
	<path class="st0" d="M29.2,85.7c0-4.2,2.7-7.3,6.9-7.3s6.9,3.2,6.9,7.3S40.3,93,36.1,93S29.2,89.9,29.2,85.7z M41.7,85.7
		c0-3.6-2.2-6.2-5.6-6.2s-5.6,2.6-5.6,6.2s2.2,6.2,5.6,6.2S41.7,89.3,41.7,85.7z"/>
	<path class="st0" d="M57.2,92.8l-8.9-12.2v12.2H47V78.6h1.2l8.9,12v-12h1.2v14.2H57.2z"/>
	<path class="st0" d="M62.5,85.7c0-4.2,2.7-7.3,6.9-7.3s6.9,3.2,6.9,7.3S73.6,93,69.4,93S62.5,89.9,62.5,85.7z M75,85.7
		c0-3.6-2.2-6.2-5.6-6.2s-5.6,2.6-5.6,6.2s2.2,6.2,5.6,6.2S75,89.3,75,85.7z"/>
	<path class="st0" d="M92.4,92.8V80.1l-5.2,12.7h-0.5l-5.2-12.7v12.7h-1.2V78.6h1.8L87,90.4l4.8-11.8h1.8v14.2H92.4z"/>
	<path class="st0" d="M98.2,92.8V78.6h1.2v14.2H98.2z"/>
	<path class="st0" d="M103.2,85.6c-0.2-3.9,2.8-7.1,6.7-7.3c0.2,0,0.3,0,0.5,0c2,0,4,0.9,5.2,2.5l-1,0.7c-1-1.3-2.5-2.1-4.2-2.1
		c-3.4,0.2-6,3.1-5.8,6.6c0.2,3.2,2.7,5.7,5.8,5.8c1.7,0,3.2-0.8,4.2-2.1l1,0.6c-1.2,1.6-3.2,2.6-5.2,2.5
		C106.3,93,103.2,90,103.2,85.6z"/>
	<path class="st0" d="M1.3,109.7V98.1h4.3c1.9,0,3.4,1.5,3.4,3.4s-1.5,3.4-3.4,3.4H2.3v4.8L1.3,109.7z M8.1,101.5
		c0.1-1.3-0.9-2.4-2.3-2.5c-0.1,0-0.2,0-0.3,0H2.3v5h3.3c1.3,0.1,2.4-0.9,2.5-2.2C8.1,101.7,8.1,101.6,8.1,101.5z"/>
	<path class="st0" d="M19.1,109.7l-1.1-2.9h-6.1l-1.1,2.9H9.5l4.7-11.6h1.2l4.7,11.6L19.1,109.7z M14.9,99.2l-2.7,6.8h5.5L14.9,99.2
		z"/>
	<path class="st0" d="M29.6,109.7l-3.3-4.8h-2.6v4.8h-1V98.1H27c1.8-0.1,3.4,1.2,3.5,3c0,0.1,0,0.2,0,0.4c0.1,1.7-1.2,3.2-2.9,3.3
		c-0.1,0-0.2,0-0.3,0l3.4,4.9L29.6,109.7z M29.6,101.5c0.1-1.3-0.9-2.4-2.3-2.5c-0.1,0-0.2,0-0.3,0h-3.3v5H27
		c1.3,0.1,2.5-0.9,2.6-2.2C29.6,101.7,29.6,101.6,29.6,101.5z"/>
	<path class="st0" d="M36.8,109.7V99H33v-0.9h8.6V99h-3.8v10.7H36.8z"/>
	<path class="st0" d="M52.8,109.7l-7.3-10v10h-1V98.1h1l7.3,9.8v-9.8h1v11.6H52.8z"/>
	<path class="st0" d="M57.5,109.7V98.1h7.4V99h-6.4v4.3h6.2v0.9h-6.2v4.6h6.4v0.9L57.5,109.7z"/>
	<path class="st0" d="M74.9,109.7l-3.3-4.8H69v4.8h-1V98.1h4.3c1.8-0.1,3.4,1.2,3.5,3c0,0.1,0,0.2,0,0.4c0.1,1.7-1.2,3.2-2.9,3.3
		c-0.1,0-0.2,0-0.3,0l3.4,4.9L74.9,109.7z M74.9,101.5c0.1-1.3-0.9-2.4-2.3-2.5c-0.1,0-0.2,0-0.3,0H69v5h3.3
		c1.3,0.1,2.5-0.9,2.6-2.2C74.9,101.7,74.9,101.6,74.9,101.5z"/>
	<path class="st0" d="M78.6,108.1l0.6-0.7c0.9,1.1,2.2,1.7,3.6,1.7c2.4,0,3-1.3,3-2.3c0-3.4-7-1.6-7-5.7c0-1.9,1.7-3.1,3.8-3.1
		c1.5-0.1,2.9,0.5,3.9,1.6l-0.7,0.7c-0.8-1-2-1.5-3.3-1.5c-1.5,0-2.7,0.9-2.7,2.1c0,3,7,1.3,7,5.7c0,1.5-1,3.3-4.1,3.3
		C81.1,109.9,79.6,109.3,78.6,108.1z"/>
	<path class="st0" d="M98.6,109.7v-5.5h-7.4v5.5h-1V98.1h1v5.2h7.4v-5.2h1v11.6H98.6z"/>
	<path class="st0" d="M103.3,109.7V98.1h1v11.6H103.3z"/>
	<path class="st0" d="M108,109.7V98.1h4.3c1.9,0,3.4,1.5,3.4,3.4s-1.5,3.4-3.4,3.4H109v4.8L108,109.7z M114.8,101.5
		c0.1-1.3-0.9-2.4-2.3-2.5c-0.1,0-0.2,0-0.3,0H109v5h3.3c1.3,0.1,2.4-0.9,2.5-2.2C114.8,101.7,114.8,101.6,114.8,101.5z"/>
</g>
<g id="logo-mark">
	<path class="st0" d="M150.5,76.9h-4.1v7.4h4.2c2.7,0,4.2-1.6,4.2-3.7v-0.1C154.8,78.1,153.2,76.9,150.5,76.9 M146.4,95.2l6.4-6.4
		c-0.8,0.1-1.6,0.2-2.4,0.2h-4V95.2z M101.6,28.5l-4.7,4.7l9.8,14l0.3,0.1L101.6,28.5z M140.2,42.3c4.6,0,7.3,1.5,9.5,3.7l-3.4,3.9
		c-1.6-1.7-3.9-2.6-6.2-2.7c-4.1,0-7,3.4-7,7.5v0.1c0,4.1,2.9,7.6,7,7.6c2.8,0,4.5-1.1,6.4-2.8l3.4,3.4c-4.7,5.3-12.7,5.8-18,1.1
		c-2.6-2.3-4.2-5.7-4.3-9.2v-0.1c-0.1-6.8,5.4-12.4,12.2-12.5C139.9,42.3,140.1,42.3,140.2,42.3 M153.8,42.3H172V47h-13v5h11.4v4.7
		H159v5.1h13v4.7h-18.2V42.3z M143.7,13.6L130.1,0L106,24.1l3.5,14.1l4.6-13.8h3.7l4.6,13.8l3.4-13.7h5.7l-7,24.3H121l-5-14.9
		l-5.1,15l9.8,4l11.1,33.8v23.1l9.3-9.3V72.1h9.9c5.8,0,9.3,3.4,9.3,8.4v1L186,55.8l-28.6-28.6c-0.7,6.1-5.7,10.6-12.8,10.6h-9.4
		V13.6H143.7z M151.8,25.7c0.2-3.8-2.7-7.1-6.5-7.3c-0.3,0-0.5,0-0.8,0h-4.1V33h4.1c3.9,0.2,7.1-2.8,7.3-6.7
		C151.8,26.1,151.8,25.9,151.8,25.7z"/>
</g>
</svg>
